<?xml version="1.0" encoding="UTF-8"?>
<svg xmlns="http://www.w3.org/2000/svg" viewBox="0 0 1024 1024" role="img" aria-label="Lumora flamma">
  <style>.flame path{fill:#bfa053;}</style>
  <g class="flame">
    <path d="M498.0 269.0 L497.0 270.0 L498.0 271.0 L498.0 272.0 L499.0 273.0 L499.0 275.0 L500.0 276.0 L500.0 278.0 L501.0 279.0 L501.0 280.0 L502.0 281.0 L502.0 283.0 L503.0 284.0 L503.0 287.0 L504.0 288.0 L504.0 292.0 L505.0 293.0 L505.0 302.0 L506.0 303.0 L505.0 304.0 L505.0 305.0 L506.0 306.0 L505.0 307.0 L505.0 317.0 L504.0 318.0 L504.0 323.0 L503.0 324.0 L503.0 327.0 L502.0 328.0 L502.0 331.0 L501.0 332.0 L501.0 334.0 L500.0 335.0 L500.0 337.0 L499.0 338.0 L499.0 340.0 L498.0 341.0 L498.0 342.0 L497.0 343.0 L497.0 345.0 L496.0 346.0 L496.0 347.0 L495.0 348.0 L495.0 349.0 L494.0 350.0 L494.0 351.0 L493.0 352.0 L493.0 353.0 L492.0 354.0 L492.0 355.0 L491.0 356.0 L491.0 357.0 L489.0 359.0 L489.0 360.0 L488.0 361.0 L488.0 362.0 L486.0 364.0 L486.0 365.0 L484.0 367.0 L484.0 368.0 L483.0 369.0 L483.0 370.0 L481.0 372.0 L481.0 373.0 L478.0 376.0 L478.0 377.0 L476.0 379.0 L476.0 380.0 L473.0 383.0 L473.0 384.0 L471.0 386.0 L471.0 387.0 L468.0 390.0 L468.0 391.0 L466.0 393.0 L466.0 394.0 L463.0 397.0 L463.0 398.0 L461.0 400.0 L461.0 401.0 L458.0 404.0 L458.0 405.0 L456.0 407.0 L456.0 408.0 L453.0 411.0 L453.0 412.0 L450.0 415.0 L450.0 416.0 L447.0 419.0 L447.0 420.0 L445.0 422.0 L445.0 423.0 L442.0 426.0 L442.0 427.0 L440.0 429.0 L440.0 430.0 L438.0 432.0 L438.0 433.0 L435.0 436.0 L435.0 437.0 L433.0 439.0 L433.0 440.0 L432.0 441.0 L432.0 442.0 L430.0 444.0 L430.0 445.0 L429.0 446.0 L429.0 447.0 L427.0 449.0 L427.0 450.0 L426.0 451.0 L426.0 452.0 L425.0 453.0 L425.0 454.0 L424.0 455.0 L424.0 456.0 L423.0 457.0 L423.0 458.0 L422.0 459.0 L422.0 460.0 L421.0 461.0 L421.0 462.0 L420.0 463.0 L420.0 464.0 L419.0 465.0 L419.0 466.0 L418.0 467.0 L418.0 469.0 L417.0 470.0 L417.0 472.0 L416.0 473.0 L416.0 474.0 L415.0 475.0 L415.0 477.0 L414.0 478.0 L414.0 480.0 L413.0 481.0 L413.0 483.0 L412.0 484.0 L412.0 487.0 L411.0 488.0 L411.0 491.0 L410.0 492.0 L410.0 496.0 L409.0 497.0 L409.0 501.0 L408.0 502.0 L408.0 509.0 L407.0 510.0 L407.0 531.0 L408.0 532.0 L408.0 539.0 L409.0 540.0 L409.0 544.0 L410.0 545.0 L410.0 548.0 L411.0 549.0 L411.0 552.0 L412.0 553.0 L412.0 556.0 L413.0 557.0 L413.0 559.0 L414.0 560.0 L414.0 562.0 L415.0 563.0 L415.0 564.0 L416.0 565.0 L416.0 567.0 L417.0 568.0 L417.0 569.0 L418.0 570.0 L418.0 571.0 L419.0 572.0 L419.0 573.0 L420.0 574.0 L420.0 575.0 L421.0 576.0 L421.0 577.0 L422.0 578.0 L422.0 579.0 L423.0 580.0 L423.0 581.0 L425.0 583.0 L425.0 584.0 L426.0 585.0 L426.0 586.0 L428.0 588.0 L428.0 589.0 L431.0 592.0 L431.0 593.0 L434.0 596.0 L434.0 597.0 L439.0 602.0 L439.0 603.0 L465.0 629.0 L466.0 629.0 L470.0 633.0 L471.0 633.0 L475.0 637.0 L476.0 637.0 L478.0 639.0 L479.0 639.0 L482.0 642.0 L483.0 642.0 L485.0 644.0 L486.0 644.0 L488.0 646.0 L489.0 646.0 L490.0 647.0 L491.0 647.0 L493.0 649.0 L494.0 649.0 L495.0 650.0 L496.0 650.0 L497.0 651.0 L498.0 651.0 L500.0 653.0 L501.0 653.0 L502.0 654.0 L503.0 654.0 L504.0 655.0 L505.0 655.0 L506.0 656.0 L508.0 656.0 L509.0 657.0 L510.0 656.0 L510.0 655.0 L509.0 654.0 L509.0 652.0 L508.0 651.0 L508.0 650.0 L507.0 649.0 L507.0 648.0 L506.0 647.0 L506.0 646.0 L505.0 645.0 L505.0 643.0 L504.0 642.0 L504.0 640.0 L503.0 639.0 L503.0 637.0 L502.0 636.0 L502.0 634.0 L501.0 633.0 L501.0 631.0 L500.0 630.0 L500.0 627.0 L499.0 626.0 L499.0 623.0 L498.0 622.0 L498.0 618.0 L497.0 617.0 L497.0 610.0 L496.0 609.0 L496.0 586.0 L497.0 585.0 L497.0 578.0 L498.0 577.0 L498.0 574.0 L499.0 573.0 L499.0 569.0 L500.0 568.0 L500.0 566.0 L501.0 565.0 L501.0 562.0 L502.0 561.0 L502.0 559.0 L503.0 558.0 L503.0 557.0 L504.0 556.0 L504.0 554.0 L505.0 553.0 L505.0 552.0 L506.0 551.0 L506.0 549.0 L507.0 548.0 L507.0 547.0 L508.0 546.0 L508.0 545.0 L509.0 544.0 L509.0 543.0 L511.0 541.0 L511.0 540.0 L512.0 539.0 L512.0 538.0 L513.0 537.0 L513.0 536.0 L515.0 534.0 L515.0 533.0 L516.0 532.0 L516.0 531.0 L518.0 529.0 L518.0 528.0 L520.0 526.0 L520.0 525.0 L522.0 523.0 L522.0 522.0 L524.0 520.0 L524.0 519.0 L526.0 517.0 L526.0 516.0 L528.0 514.0 L528.0 513.0 L530.0 511.0 L530.0 510.0 L532.0 508.0 L532.0 507.0 L534.0 505.0 L534.0 504.0 L536.0 502.0 L536.0 501.0 L538.0 499.0 L538.0 498.0 L540.0 496.0 L540.0 495.0 L542.0 493.0 L542.0 492.0 L544.0 490.0 L544.0 489.0 L546.0 487.0 L546.0 486.0 L548.0 484.0 L548.0 483.0 L549.0 482.0 L549.0 481.0 L551.0 479.0 L551.0 478.0 L552.0 477.0 L552.0 476.0 L553.0 475.0 L553.0 474.0 L555.0 472.0 L555.0 471.0 L556.0 470.0 L556.0 469.0 L557.0 468.0 L557.0 466.0 L558.0 465.0 L558.0 464.0 L559.0 463.0 L559.0 462.0 L560.0 461.0 L560.0 459.0 L561.0 458.0 L561.0 457.0 L562.0 456.0 L562.0 454.0 L563.0 453.0 L563.0 451.0 L564.0 450.0 L564.0 447.0 L565.0 446.0 L565.0 443.0 L566.0 442.0 L566.0 438.0 L567.0 437.0 L567.0 432.0 L568.0 431.0 L568.0 401.0 L567.0 400.0 L567.0 394.0 L566.0 393.0 L566.0 388.0 L565.0 387.0 L565.0 383.0 L564.0 382.0 L564.0 380.0 L563.0 379.0 L563.0 376.0 L562.0 375.0 L562.0 373.0 L561.0 372.0 L561.0 369.0 L560.0 368.0 L560.0 366.0 L559.0 365.0 L559.0 363.0 L558.0 362.0 L558.0 361.0 L557.0 360.0 L557.0 358.0 L556.0 357.0 L556.0 355.0 L555.0 354.0 L555.0 353.0 L554.0 352.0 L554.0 351.0 L553.0 350.0 L553.0 348.0 L552.0 347.0 L552.0 346.0 L551.0 345.0 L551.0 344.0 L550.0 343.0 L550.0 342.0 L549.0 341.0 L549.0 340.0 L548.0 339.0 L548.0 338.0 L547.0 337.0 L547.0 336.0 L546.0 335.0 L546.0 334.0 L545.0 333.0 L545.0 332.0 L544.0 331.0 L544.0 330.0 L543.0 329.0 L543.0 328.0 L542.0 327.0 L542.0 326.0 L540.0 324.0 L540.0 323.0 L539.0 322.0 L539.0 321.0 L537.0 319.0 L537.0 318.0 L536.0 317.0 L536.0 316.0 L534.0 314.0 L534.0 313.0 L532.0 311.0 L532.0 310.0 L530.0 308.0 L530.0 307.0 L527.0 304.0 L527.0 303.0 L525.0 301.0 L525.0 300.0 L522.0 297.0 L522.0 296.0 L518.0 292.0 L518.0 291.0 L512.0 285.0 L512.0 284.0 L501.0 273.0 L501.0 272.0 Z"/>
    <path d="M589.0 443.0 L588.0 444.0 L588.0 447.0 L587.0 448.0 L587.0 458.0 L586.0 459.0 L586.0 464.0 L585.0 465.0 L585.0 469.0 L584.0 470.0 L584.0 473.0 L583.0 474.0 L583.0 477.0 L582.0 478.0 L582.0 480.0 L581.0 481.0 L581.0 483.0 L580.0 484.0 L580.0 486.0 L579.0 487.0 L579.0 489.0 L578.0 490.0 L578.0 492.0 L577.0 493.0 L577.0 494.0 L576.0 495.0 L576.0 496.0 L575.0 497.0 L575.0 499.0 L574.0 500.0 L574.0 501.0 L573.0 502.0 L573.0 503.0 L572.0 504.0 L572.0 505.0 L571.0 506.0 L571.0 507.0 L570.0 508.0 L570.0 509.0 L569.0 510.0 L569.0 511.0 L568.0 512.0 L568.0 513.0 L566.0 515.0 L566.0 516.0 L565.0 517.0 L565.0 518.0 L563.0 520.0 L563.0 521.0 L561.0 523.0 L561.0 524.0 L559.0 526.0 L559.0 527.0 L557.0 529.0 L557.0 530.0 L555.0 532.0 L555.0 533.0 L552.0 536.0 L552.0 537.0 L550.0 539.0 L550.0 540.0 L548.0 542.0 L548.0 543.0 L546.0 545.0 L546.0 546.0 L544.0 548.0 L544.0 549.0 L542.0 551.0 L542.0 552.0 L540.0 554.0 L540.0 555.0 L539.0 556.0 L539.0 557.0 L538.0 558.0 L538.0 559.0 L537.0 560.0 L537.0 561.0 L535.0 563.0 L535.0 564.0 L534.0 565.0 L534.0 566.0 L533.0 567.0 L533.0 569.0 L532.0 570.0 L532.0 571.0 L531.0 572.0 L531.0 573.0 L530.0 574.0 L530.0 576.0 L529.0 577.0 L529.0 579.0 L528.0 580.0 L528.0 582.0 L527.0 583.0 L527.0 585.0 L526.0 586.0 L526.0 589.0 L525.0 590.0 L525.0 594.0 L524.0 595.0 L524.0 599.0 L523.0 600.0 L523.0 606.0 L522.0 607.0 L522.0 640.0 L523.0 641.0 L523.0 648.0 L524.0 649.0 L524.0 653.0 L526.0 655.0 L528.0 653.0 L528.0 652.0 L531.0 649.0 L531.0 648.0 L535.0 644.0 L535.0 643.0 L543.0 635.0 L543.0 634.0 L568.0 609.0 L568.0 608.0 L580.0 596.0 L580.0 595.0 L585.0 590.0 L585.0 589.0 L588.0 586.0 L588.0 585.0 L591.0 582.0 L591.0 581.0 L593.0 579.0 L593.0 578.0 L595.0 576.0 L595.0 575.0 L596.0 574.0 L596.0 573.0 L598.0 571.0 L598.0 570.0 L599.0 569.0 L599.0 568.0 L600.0 567.0 L600.0 566.0 L601.0 565.0 L601.0 564.0 L602.0 563.0 L602.0 562.0 L603.0 561.0 L603.0 559.0 L604.0 558.0 L604.0 557.0 L605.0 556.0 L605.0 554.0 L606.0 553.0 L606.0 551.0 L607.0 550.0 L607.0 548.0 L608.0 547.0 L608.0 544.0 L609.0 543.0 L609.0 540.0 L610.0 539.0 L610.0 535.0 L611.0 534.0 L611.0 526.0 L612.0 525.0 L612.0 507.0 L611.0 506.0 L611.0 499.0 L610.0 498.0 L610.0 493.0 L609.0 492.0 L609.0 488.0 L608.0 487.0 L608.0 485.0 L607.0 484.0 L607.0 481.0 L606.0 480.0 L606.0 478.0 L605.0 477.0 L605.0 475.0 L604.0 474.0 L604.0 472.0 L603.0 471.0 L603.0 469.0 L602.0 468.0 L602.0 467.0 L601.0 466.0 L601.0 464.0 L600.0 463.0 L600.0 462.0 L599.0 461.0 L599.0 460.0 L598.0 459.0 L598.0 458.0 L597.0 457.0 L597.0 456.0 L596.0 455.0 L596.0 454.0 L595.0 453.0 L595.0 452.0 L593.0 450.0 L593.0 449.0 L592.0 448.0 L592.0 447.0 L590.0 445.0 L590.0 444.0 Z"/>
    <path d="M366.0 698.0 L365.0 699.0 L364.0 699.0 L363.0 700.0 L363.0 701.0 L362.0 702.0 L362.0 708.0 L363.0 709.0 L363.0 710.0 L364.0 711.0 L365.0 711.0 L366.0 712.0 L368.0 712.0 L369.0 713.0 L654.0 713.0 L655.0 712.0 L657.0 712.0 L661.0 708.0 L661.0 702.0 L657.0 698.0 Z"/>
  </g>
</svg>
